PathFileType  4	(X/Y/Z) C:\Users\wagnerel85475\Documents\Thesis\opencap-core\Data\3375ffbc-daeb-4a43-b4f7-ac9899cd4c71\MarkerData\PreAugmentation
DataRate	CameraRate	NumFrames	NumMarkers	Units	OrigDataRate	OrigDataStartFrame	OrigNumFrames
60.0	60.0	12	20	m	60.0	1	282
Frame#	Time	Neck			RShoulder			RElbow			RWrist			LShoulder			LElbow			LWrist			midHip			RHip			RKnee			RAnkle			LHip			LKnee			LAnkle			LBigToe			LSmallToe			LHeel			RBigToe			RSmallToe			RHeel			
		X1	Y1	Z1	X2	Y2	Z2	X3	Y3	Z3	X4	Y4	Z4	X5	Y5	Z5	X6	Y6	Z6	X7	Y7	Z7	X8	Y8	Z8	X9	Y9	Z9	X10	Y10	Z10	X11	Y11	Z11	X12	Y12	Z12	X13	Y13	Z13	X14	Y14	Z14	X15	Y15	Z15	X16	Y16	Z16	X17	Y17	Z17	X18	Y18	Z18	X19	Y19	Z19	X20	Y20	Z20	

1	0.0000000	0.2316600	0.8697800	-0.1424500	0.2401000	0.8222900	0.0311100	0.2010000	0.4987300	0.1100700	0.3392500	0.2613000	0.1433100	0.2160300	0.9067500	-0.2986200	0.2924500	1.2169300	-0.4018900	0.3172300	1.5027500	-0.3983200	0.2576900	0.3269600	-0.1449500	0.2722100	0.3202100	-0.0146300	0.7879500	0.3346000	-0.0094300	0.6963700	-0.1782800	-0.0018500	0.2674900	0.3346100	-0.2725800	0.7577700	0.3254500	-0.3301600	0.6873300	-0.1748800	-0.3178800	0.8947800	-0.2240200	-0.3400400	0.8454200	-0.2210200	-0.3827900	0.6307400	-0.2242000	-0.3096300	0.8977900	-0.2336700	0.0260300	0.8420300	-0.2223800	0.0659800	0.6368700	-0.2245400	-0.0216900
2	0.0166667	0.2318200	0.8696400	-0.1424500	0.2397100	0.8221300	0.0311200	0.2010700	0.4991600	0.1099500	0.3393100	0.2618000	0.1430800	0.2165400	0.9064500	-0.2987100	0.2917700	1.2165000	-0.4019000	0.3186300	1.5030900	-0.3976900	0.2578000	0.3271700	-0.1448800	0.2721900	0.3200900	-0.0147100	0.7880100	0.3346600	-0.0094000	0.6970500	-0.1818900	-0.0025100	0.2668100	0.3344800	-0.2724300	0.7577600	0.3253500	-0.3301400	0.6873300	-0.1747400	-0.3178100	0.8951400	-0.2238300	-0.3400200	0.8454200	-0.2210000	-0.3827900	0.6306900	-0.2238700	-0.3097000	0.8978400	-0.2337800	0.0260200	0.8420200	-0.2223500	0.0659700	0.6368700	-0.2245600	-0.0217400
3	0.0333333	0.2316100	0.8698100	-0.1424200	0.2399600	0.8223000	0.0311100	0.2009500	0.4987500	0.1100800	0.3389500	0.2619100	0.1431200	0.2159500	0.9067400	-0.2986000	0.2924700	1.2168500	-0.4018600	0.3175800	1.5028100	-0.3981900	0.2574500	0.3270200	-0.1449200	0.2697900	0.3241500	-0.0140300	0.7879700	0.3346400	-0.0094300	0.6970600	-0.1819500	-0.0025500	0.2570000	0.3326100	-0.2765600	0.7576900	0.3253600	-0.3302100	0.6873300	-0.1748800	-0.3178800	0.8948000	-0.2240600	-0.3400400	0.8454400	-0.2210300	-0.3827900	0.6306800	-0.2240600	-0.3096200	0.8976900	-0.2336600	0.0260100	0.8419500	-0.2223800	0.0659600	0.6368100	-0.2246100	-0.0217000
4	0.0500000	0.2318000	0.8696700	-0.1423800	0.2395800	0.8221400	0.0311400	0.2010200	0.4992000	0.1099800	0.3391500	0.2620500	0.1430000	0.2166400	0.9064500	-0.2986400	0.2917800	1.2164200	-0.4018600	0.3283900	1.5026100	-0.3934000	0.2576900	0.3271900	-0.1448800	0.2699100	0.3239200	-0.0141500	0.7880800	0.3346800	-0.0093800	0.6970300	-0.1818700	-0.0025100	0.2666900	0.3344800	-0.2724300	0.7577600	0.3252900	-0.3301500	0.6873100	-0.1747500	-0.3178200	0.8951100	-0.2238600	-0.3400400	0.8453900	-0.2210300	-0.3828000	0.6306900	-0.2237700	-0.3096800	0.8977100	-0.2337300	0.0259900	0.8419500	-0.2223600	0.0659600	0.6369100	-0.2245600	-0.0217300
5	0.0666667	0.2316000	0.8699100	-0.1423600	0.2399700	0.8222700	0.0311400	0.2008800	0.4987200	0.1101100	0.3388700	0.2619500	0.1430800	0.2159800	0.9068100	-0.2985200	0.2927200	1.2129300	-0.4017600	0.3273300	1.5022400	-0.3938700	0.2575300	0.3270100	-0.1449400	0.2699200	0.3241300	-0.0140400	0.7879600	0.3346300	-0.0094300	0.6970900	-0.1819200	-0.0025400	0.2570500	0.3325900	-0.2765900	0.7577200	0.3253200	-0.3302100	0.6873500	-0.1748500	-0.3178700	0.8947200	-0.2240800	-0.3400800	0.8453600	-0.2210700	-0.3828400	0.6307600	-0.2240500	-0.3095800	0.8978500	-0.2337100	0.0260400	0.8420600	-0.2223700	0.0659900	0.6368000	-0.2246000	-0.0216900
6	0.0833333	0.2314800	0.8741800	-0.1422400	0.2394800	0.8221700	0.0311800	0.2009800	0.4992000	0.1100200	0.3392000	0.2619100	0.1430400	0.2165100	0.9065300	-0.2986600	0.2917600	1.2165300	-0.4017800	0.3185000	1.5030500	-0.3894500	0.2576300	0.3271300	-0.1449600	0.2697900	0.3239200	-0.0142200	0.7879600	0.3346200	-0.0094200	0.6970800	-0.1819700	-0.0025000	0.2562200	0.3323700	-0.2765300	0.7575300	0.3252700	-0.3302700	0.6878100	-0.1782900	-0.3185200	0.8944400	-0.2208200	-0.3407400	0.8451400	-0.2211300	-0.3828900	0.6219900	-0.2304600	-0.3064800	0.8974500	-0.2300700	0.0266800	0.8421300	-0.2192200	0.0652800	0.6369200	-0.2246000	-0.0217100
7	0.1000000	0.2313400	0.8743400	-0.1422200	0.2293300	0.8212400	0.0360200	0.2007400	0.5031500	0.1104600	0.3391900	0.2616400	0.1432100	0.2160500	0.9068400	-0.2985000	0.2927800	1.2129500	-0.4017100	0.3173300	1.5026900	-0.3900200	0.2574300	0.3269700	-0.1449900	0.2697300	0.3242100	-0.0140700	0.7879100	0.3345900	-0.0094700	0.6971700	-0.1820300	-0.0025200	0.2569700	0.3325400	-0.2766800	0.7574900	0.3253300	-0.3303100	0.6871400	-0.1748900	-0.3179400	0.8940700	-0.2210300	-0.3407700	0.8451500	-0.2211300	-0.3829000	0.6213800	-0.2275700	-0.3057700	0.8973700	-0.2300100	0.0266700	0.8421200	-0.2192300	0.0652800	0.6368600	-0.2246200	-0.0216500
8	0.1166667	0.2317900	0.8663400	-0.1421900	0.2289400	0.8211000	0.0360100	0.2009100	0.4991600	0.1100500	0.3395900	0.2615400	0.1431500	0.2167700	0.9065100	-0.2986200	0.2920800	1.2126000	-0.4016700	0.3185400	1.5029100	-0.3894500	0.2575800	0.3271600	-0.1449400	0.2697200	0.3239600	-0.0141600	0.7880200	0.3346300	-0.0094200	0.6971200	-0.1819800	-0.0024900	0.2561000	0.3323700	-0.2765200	0.7575600	0.3252800	-0.3302500	0.6871000	-0.1748000	-0.3178900	0.8944200	-0.2208100	-0.3407600	0.8451000	-0.2211500	-0.3829100	0.6213300	-0.2272800	-0.3058800	0.8974100	-0.2300500	0.0266700	0.8421100	-0.2192100	0.0652700	0.6369600	-0.2245800	-0.0216900
9	0.1333333	0.2315500	0.8699600	-0.1423300	0.2293400	0.8212000	0.0360300	0.2007300	0.5030300	0.1104900	0.3392300	0.2616100	0.1432100	0.2160800	0.9068400	-0.2984600	0.2929400	1.2130000	-0.4016700	0.3173100	1.5026100	-0.3900400	0.2574100	0.3269200	-0.1450000	0.2697300	0.3241500	-0.0140600	0.7879200	0.3345700	-0.0094600	0.6971400	-0.1820500	-0.0025200	0.2569000	0.3325500	-0.2767100	0.7575300	0.3253400	-0.3303000	0.6871300	-0.1749000	-0.3179400	0.8940800	-0.2210500	-0.3407700	0.8451600	-0.2211200	-0.3829000	0.6213700	-0.2276100	-0.3057800	0.8973500	-0.2299900	0.0267100	0.8419100	-0.2223800	0.0659400	0.6368400	-0.2246400	-0.0216700
10	0.1500000	0.2316600	0.8663200	-0.1421800	0.2288200	0.8210100	0.0360500	0.2009300	0.4990900	0.1100400	0.3394000	0.2616300	0.1431300	0.2166500	0.9026100	-0.2984500	0.2921600	1.2125500	-0.4016700	0.3185500	1.5028900	-0.3894500	0.2575100	0.3270700	-0.1449400	0.2596500	0.3217900	-0.0095900	0.7880400	0.3346500	-0.0093900	0.6970800	-0.1819400	-0.0025100	0.2560800	0.3323600	-0.2765500	0.7575800	0.3253000	-0.3302400	0.6877700	-0.1783000	-0.3185200	0.8944500	-0.2208200	-0.3407400	0.8451000	-0.2211500	-0.3828900	0.6218800	-0.2305700	-0.3065300	0.8973700	-0.2300400	0.0266700	0.8420800	-0.2192300	0.0652700	0.6369400	-0.2245800	-0.0217500
11	0.1666667	0.2315400	0.8665000	-0.1421400	0.2293200	0.8211700	0.0360700	0.2007600	0.4985900	0.1102000	0.3394800	0.2610300	0.1433900	0.2161300	0.9029300	-0.2982900	0.2930000	1.2129000	-0.4016800	0.3172900	1.5025900	-0.3900300	0.2574300	0.3269000	-0.1449300	0.2598000	0.3220300	-0.0094200	0.7879600	0.3346300	-0.0094600	0.6970600	-0.1819100	-0.0025500	0.2569900	0.3325600	-0.2766500	0.7575900	0.3254100	-0.3302400	0.6871600	-0.1748300	-0.3179100	0.8940800	-0.2210300	-0.3407600	0.8451500	-0.2211000	-0.3828900	0.6213900	-0.2276400	-0.3057600	0.8973600	-0.2300000	0.0266900	0.8421200	-0.2192800	0.0652900	0.6367900	-0.2245900	-0.0216900
12	0.1833333	0.2317300	0.8663000	-0.1421600	0.2289300	0.8209800	0.0360800	0.2009800	0.4991600	0.1100300	0.3397200	0.2611400	0.1433100	0.2168100	0.9026300	-0.2984200	0.2922500	1.2125700	-0.4017600	0.3186400	1.5028100	-0.3894200	0.2576500	0.3271000	-0.1448900	0.2697900	0.3237900	-0.0141200	0.7881100	0.3346400	-0.0094100	0.6970200	-0.1818600	-0.0025100	0.2562000	0.3323900	-0.2764900	0.7577100	0.3253700	-0.3301700	0.6871600	-0.1748100	-0.3178700	0.8944200	-0.2208300	-0.3407500	0.8450800	-0.2211500	-0.3829000	0.6213700	-0.2273300	-0.3059000	0.8974100	-0.2300300	0.0266900	0.8421100	-0.2192300	0.0652900	0.6369100	-0.2245500	-0.0217400
